<svg width="106" height="106" viewBox="0 0 106 106" fill="none" xmlns="http://www.w3.org/2000/svg">
<path d="M84.1716 64.0938C84.1717 63.1044 83.8784 62.1373 83.3287 61.3147C82.7791 60.4921 81.9979 59.8509 81.0839 59.4723C80.1699 59.0937 79.1641 58.9946 78.1938 59.1876C77.2234 59.3806 76.3321 59.857 75.6326 60.5566C74.933 61.2561 74.4566 62.1474 74.2636 63.1178C74.0706 64.0881 74.1697 65.0939 74.5483 66.0079C74.9269 66.9219 75.5681 67.7031 76.3907 68.2527C77.2133 68.8024 78.1804 69.0957 79.1698 69.0957C80.4959 69.0941 81.7672 68.5667 82.7049 67.6289C83.6426 66.6912 84.1701 65.4199 84.1716 64.0938ZM76.6521 64.0938C76.652 63.5958 76.7996 63.109 77.0763 62.695C77.3529 62.2809 77.7461 61.9582 78.2061 61.7676C78.6662 61.577 79.1724 61.5271 79.6608 61.6242C80.1492 61.7213 80.5979 61.9611 80.95 62.3132C81.3021 62.6653 81.5419 63.1139 81.6391 63.6023C81.7362 64.0907 81.6864 64.5969 81.4958 65.057C81.3053 65.5171 80.9826 65.9103 80.5686 66.187C80.1545 66.4636 79.6677 66.6113 79.1698 66.6113C78.5023 66.6106 77.8623 66.3451 77.3903 65.8732C76.9183 65.4012 76.6528 64.7613 76.6521 64.0938Z" fill="url(#paint0_linear)"/>
<path d="M103.809 85.7644L100.437 62.9984C101.974 59.4622 102.609 55.5996 102.285 51.7574C101.96 47.9152 100.687 44.2137 98.5783 40.9853C96.4699 37.7569 93.5928 35.1027 90.2052 33.261C86.8176 31.4192 83.0256 30.4477 79.1698 30.4336H67.0781V30.2059C67.0849 29.5279 66.9565 28.8553 66.7005 28.2275C66.4445 27.5997 66.066 27.0291 65.587 26.5492C65.1081 26.0693 64.5383 25.6896 63.911 25.4323C63.2837 25.1751 62.6114 25.0454 61.9334 25.0508H58.1758V23.2819C58.1735 22.4077 57.8907 21.5574 57.3689 20.856C56.8471 20.1546 56.114 19.6393 55.2773 19.3858V10.1129C55.2773 8.95978 55.7354 7.85394 56.5507 7.0386C57.3661 6.22325 58.4719 5.7652 59.625 5.7652C60.7781 5.7652 61.8839 6.22325 62.6992 7.0386C63.5146 7.85394 63.9726 8.95978 63.9726 10.1129V16.2727C63.9833 18.4944 64.8732 20.6216 66.4479 22.189C68.0226 23.7563 70.1538 24.6364 72.3756 24.6367H72.3932C72.7234 24.6374 73.0404 24.5073 73.2748 24.2749C73.5092 24.0424 73.642 23.7265 73.6441 23.3964C73.6374 23.0637 73.5001 22.7471 73.262 22.5147C73.0239 22.2823 72.704 22.1528 72.3713 22.1542C70.8085 22.1537 69.3094 21.535 68.2013 20.433C67.0932 19.331 66.4661 17.8354 66.457 16.2727V10.1129C66.457 8.30089 65.7372 6.56313 64.456 5.28188C63.1747 4.00062 61.437 3.28082 59.625 3.28082C57.813 3.28082 56.0753 4.00062 54.794 5.28188C53.5127 6.56313 52.7929 8.30089 52.7929 10.1129V19.4537C51.9943 19.7207 51.3022 20.2364 50.8179 20.9253C50.3336 21.6142 50.0825 22.44 50.1015 23.2819V25.0508H46.2833C43.4033 25.0508 40.9922 27.325 40.9922 30.2059V30.4336H26.83C19.3102 30.6406 12.2299 34.162 7.89015 40.303C6.12264 42.7942 4.86607 45.6108 4.19298 48.5903C3.5199 51.5698 3.44362 54.653 3.96856 57.6621C4.29517 59.5736 4.85733 61.4373 5.6422 63.2106L2.22495 86.2861C1.72605 89.6522 2.45006 93.0857 4.26566 95.9638C6.08125 98.8419 8.8682 100.974 12.121 101.973C13.4626 102.385 14.8582 102.595 16.2617 102.595C18.8172 102.594 21.3259 101.909 23.5264 100.61C25.7269 99.3102 27.5387 97.4445 28.773 95.2068L41.6754 71.644C43.2483 70.3431 44.6418 68.8394 45.8193 67.1721C46.6078 66.0545 47.6534 65.1429 48.868 64.514C50.0826 63.8851 51.4306 63.5574 52.7983 63.5586H53.2635C54.6266 63.5565 55.9704 63.8812 57.1821 64.5056C58.3938 65.13 59.4381 66.0358 60.2274 67.1471C61.4119 68.823 62.8146 70.3334 64.3985 71.6384L77.1289 95.3741C78.363 97.612 80.1748 99.4778 82.3754 100.777C84.576 102.077 87.0848 102.762 89.6404 102.762C91.0438 102.763 92.4394 102.553 93.781 102.141C100.554 100.062 104.68 93.3442 103.815 85.8051C103.813 85.7913 103.811 85.7778 103.809 85.7644ZM52.5859 23.2821C52.5859 22.8703 52.7495 22.4754 53.0407 22.1842C53.3319 21.893 53.7268 21.7294 54.1387 21.7294C54.5505 21.7294 54.9454 21.893 55.2366 22.1842C55.5278 22.4754 55.6914 22.8703 55.6914 23.2821V25.0508H52.5859V23.2821ZM43.4765 30.2059C43.4765 28.6958 44.7732 27.5352 46.2833 27.5352H61.9334C62.2852 27.5293 62.6346 27.5945 62.9607 27.7268C63.2868 27.8591 63.5828 28.0558 63.8312 28.3051C64.0795 28.5544 64.275 28.8512 64.406 29.1778C64.5371 29.5044 64.6009 29.854 64.5937 30.2059V30.4336H43.4765V30.2059ZM26.594 94.0152C25.2707 96.4319 23.1396 98.3063 20.5737 99.3102C18.0077 100.314 15.1705 100.383 12.5585 99.5062C9.94655 98.629 7.72633 96.8611 6.28648 94.5119C4.84662 92.1628 4.27888 89.382 4.68261 86.6564L7.62536 66.7908C9.75483 69.9214 12.6165 72.4847 15.9618 74.258C19.307 76.0312 23.0347 76.9609 26.8209 76.9661C30.4486 76.9664 34.0268 76.1251 37.2743 74.5083L26.594 94.0152ZM62.2561 65.7554C61.2395 64.3144 59.8928 63.1375 58.3286 62.3232C56.7643 61.5088 55.0279 61.0806 53.2644 61.0742H52.7963C51.0308 61.0732 49.2909 61.4965 47.7233 62.3085C46.1556 63.1204 44.8061 64.2973 43.7883 65.7399C41.7328 68.6449 38.9644 70.9721 35.7494 72.4978C32.5343 74.0235 28.9808 74.6963 25.4306 74.4515C21.8803 74.2067 18.4528 73.0526 15.4776 71.1001C12.5023 69.1476 10.0795 66.4624 8.44212 63.3028C6.80473 60.1432 6.00783 56.6155 6.12806 53.0588C6.2483 49.5022 7.28162 46.0363 9.12866 42.9945C10.9757 39.9527 13.5743 37.4373 16.6746 35.6902C19.7749 33.9431 23.2726 33.023 26.8312 33.0186H79.1687C84.6415 33.0675 89.8736 35.2758 93.7263 39.1631C97.5789 43.0503 99.7405 48.3019 99.7405 53.7749C99.7405 59.2479 97.5789 64.4995 93.7263 68.3867C89.8736 72.274 84.6415 74.4824 79.1687 74.5312H79.1532C75.8406 74.5246 72.5778 73.7243 69.638 72.1976C66.6982 70.6708 64.1669 68.462 62.2561 65.756V65.7554ZM93.0516 99.7661C90.4695 100.551 87.6962 100.426 85.1955 99.4106C82.6948 98.3957 80.6184 96.5529 79.3137 94.1905L68.7323 74.4623C71.9645 76.0901 75.533 76.9385 79.152 76.9396C79.158 76.9396 79.1631 76.9353 79.17 76.9349C82.23 76.9392 85.2603 76.3336 88.0836 75.1534C90.907 73.9733 93.4668 72.2422 95.6134 70.0614C96.6694 68.9986 97.6218 67.8378 98.4578 66.5945L101.349 86.1078C102.066 92.431 98.6564 98.0454 93.0516 99.7661Z" fill="url(#paint1_linear)"/>
<path d="M59.2617 37.8867H48.9551C47.8569 37.8867 46.8037 38.323 46.0272 39.0995C45.2507 39.876 44.8145 40.9292 44.8145 42.0273C44.8145 43.1255 45.2507 44.1787 46.0272 44.9552C46.8037 45.7317 47.8569 46.168 48.9551 46.168H59.2617C60.3599 46.168 61.4131 45.7317 62.1896 44.9552C62.9661 44.1787 63.4023 43.1255 63.4023 42.0273C63.4023 40.9292 62.9661 39.876 62.1896 39.0995C61.4131 38.323 60.3599 37.8867 59.2617 37.8867ZM52.793 43.6836H48.9551C48.5158 43.6836 48.0945 43.5091 47.7839 43.1985C47.4733 42.8879 47.2988 42.4666 47.2988 42.0273C47.2988 41.5881 47.4733 41.1668 47.7839 40.8562C48.0945 40.5456 48.5158 40.3711 48.9551 40.3711H52.793V43.6836ZM59.2617 43.6836H55.2774V40.3711H59.2617C59.701 40.3711 60.1223 40.5456 60.4329 40.8562C60.7435 41.1668 60.918 41.5881 60.918 42.0273C60.918 42.4666 60.7435 42.8879 60.4329 43.1985C60.1223 43.5091 59.701 43.6836 59.2617 43.6836Z" fill="url(#paint2_linear)"/>
<path d="M89.5091 58.7554C90.4984 58.7555 91.4655 58.4621 92.2882 57.9125C93.1108 57.3629 93.7519 56.5817 94.1306 55.6677C94.5092 54.7537 94.6083 53.7479 94.4153 52.7776C94.2223 51.8072 93.7459 50.9159 93.0463 50.2164C92.3467 49.5168 91.4554 49.0404 90.4851 48.8474C89.5148 48.6544 88.509 48.7535 87.595 49.1321C86.681 49.5107 85.8997 50.1519 85.3501 50.9745C84.8005 51.7971 84.5072 52.7642 84.5072 53.7536C84.5087 55.0797 85.0362 56.351 85.9739 57.2887C86.9116 58.2264 88.183 58.7539 89.5091 58.7554ZM89.5091 51.2359C90.007 51.2358 90.4938 51.3835 90.9079 51.6601C91.322 51.9367 91.6447 52.3299 91.8353 52.7899C92.0259 53.25 92.0758 53.7562 91.9786 54.2446C91.8815 54.733 91.6417 55.1817 91.2896 55.5338C90.9375 55.8859 90.4889 56.1257 90.0005 56.2229C89.5121 56.3201 89.0059 56.2702 88.5458 56.0797C88.0858 55.8891 87.6926 55.5664 87.4159 55.1524C87.1392 54.7383 86.9916 54.2515 86.9916 53.7536C86.9925 53.0862 87.2581 52.4465 87.73 51.9747C88.2019 51.5029 88.8417 51.2375 89.5091 51.2367V51.2359Z" fill="url(#paint3_linear)"/>
<path d="M68.8302 48.7523C67.8409 48.7523 66.8738 49.0457 66.0512 49.5953C65.2286 50.145 64.5875 50.9262 64.2089 51.8402C63.8303 52.7542 63.7312 53.7599 63.9242 54.7303C64.1172 55.7006 64.5937 56.5919 65.2932 57.2914C65.9928 57.991 66.884 58.4674 67.8544 58.6604C68.8247 58.8534 69.8304 58.7543 70.7444 58.3757C71.6584 57.9971 72.4397 57.356 72.9893 56.5334C73.5389 55.7108 73.8323 54.7437 73.8323 53.7544C73.8309 52.4282 73.3034 51.1567 72.3656 50.219C71.4279 49.2812 70.1564 48.7537 68.8302 48.7523ZM68.8302 56.2719C68.3322 56.2719 67.8455 56.1242 67.4314 55.8476C67.0174 55.5709 66.6947 55.1777 66.5041 54.7176C66.3136 54.2576 66.2637 53.7513 66.3609 53.2629C66.4581 52.7745 66.6979 52.3259 67.05 51.9738C67.4021 51.6217 67.8508 51.382 68.3392 51.2848C68.8276 51.1877 69.3338 51.2376 69.7938 51.4282C70.2539 51.6188 70.6471 51.9415 70.9237 52.3556C71.2003 52.7696 71.348 53.2564 71.3479 53.7544C71.3469 54.4217 71.0813 55.0614 70.6093 55.5332C70.1374 56.005 69.4976 56.2704 68.8302 56.2711V56.2719Z" fill="url(#paint4_linear)"/>
<path d="M79.1698 48.4167C80.1591 48.4167 81.1261 48.1233 81.9486 47.5736C82.7712 47.024 83.4122 46.2428 83.7908 45.3288C84.1693 44.4149 84.2684 43.4092 84.0753 42.4389C83.8823 41.4686 83.4059 40.5774 82.7064 39.8779C82.0069 39.1784 81.1156 38.702 80.1453 38.5091C79.1751 38.3161 78.1694 38.4151 77.2554 38.7937C76.3415 39.1723 75.5603 39.8134 75.0107 40.636C74.4611 41.4585 74.1677 42.4256 74.1677 43.4148C74.1692 44.741 74.6967 46.0124 75.6345 46.9501C76.5722 47.8879 77.8436 48.4153 79.1698 48.4167ZM79.1698 40.8973C79.6677 40.8974 80.1544 41.0451 80.5684 41.3217C80.9824 41.5984 81.305 41.9916 81.4955 42.4516C81.686 42.9116 81.7359 43.4178 81.6387 43.9061C81.5415 44.3944 81.3018 44.843 80.9497 45.1951C80.5976 45.5471 80.149 45.7869 79.6607 45.884C79.1723 45.9811 78.6661 45.9312 78.2061 45.7407C77.7461 45.5501 77.353 45.2275 77.0764 44.8135C76.7997 44.3995 76.6521 43.9127 76.6521 43.4148C76.6529 42.7474 76.9184 42.1074 77.3904 41.6355C77.8624 41.1635 78.5023 40.8981 79.1698 40.8973Z" fill="url(#paint5_linear)"/>
<path d="M76.9229 53.7544C76.9229 54.1988 77.0546 54.6332 77.3015 55.0027C77.5484 55.3722 77.8993 55.6602 78.3099 55.8303C78.7205 56.0004 79.1723 56.0448 79.6081 55.9582C80.044 55.8715 80.4443 55.6575 80.7586 55.3432C81.0728 55.029 81.2868 54.6286 81.3735 54.1928C81.4602 53.7569 81.4157 53.3051 81.2456 52.8946C81.0756 52.484 80.7876 52.1331 80.4181 51.8862C80.0486 51.6393 79.6142 51.5075 79.1698 51.5075C78.574 51.5082 78.0029 51.7451 77.5817 52.1663C77.1604 52.5876 76.9235 53.1587 76.9229 53.7544ZM79.4072 53.7544C79.4072 53.8014 79.3933 53.8473 79.3672 53.8863C79.3411 53.9254 79.304 53.9558 79.2606 53.9738C79.2172 53.9918 79.1695 53.9965 79.1234 53.9873C79.0774 53.9782 79.0351 53.9555 79.0019 53.9223C78.9686 53.8891 78.946 53.8468 78.9369 53.8007C78.9277 53.7547 78.9324 53.7069 78.9504 53.6635C78.9683 53.6201 78.9988 53.5831 79.0378 53.557C79.0769 53.5309 79.1228 53.517 79.1698 53.517C79.2327 53.5171 79.293 53.5421 79.3376 53.5866C79.3821 53.6311 79.4071 53.6915 79.4072 53.7544Z" fill="url(#paint6_linear)"/>
<path d="M34.2274 50.1016H30.6406V46.5071C30.6391 46.3478 30.6054 46.1905 30.5415 46.0446C30.4775 45.8988 30.3848 45.7674 30.2687 45.6583C30.1526 45.5492 30.0157 45.4648 29.8661 45.4101C29.7166 45.3553 29.5575 45.3314 29.3984 45.3398H24.5624C24.4072 45.3327 24.2522 45.3581 24.1074 45.4142C23.9625 45.4704 23.8309 45.5561 23.721 45.6659C23.6112 45.7757 23.5254 45.9073 23.4692 46.0521C23.4129 46.1969 23.3875 46.3519 23.3945 46.5071V50.1016H19.733C19.3974 50.0976 19.0735 50.2242 18.8296 50.4546C18.5856 50.685 18.4409 51.0013 18.4258 51.3365V56.1723C18.4258 56.8582 19.0469 57.3476 19.733 57.3476H23.3945V61.0015C23.3945 61.6874 23.8767 62.3164 24.5628 62.3164H29.3984C29.7351 62.2998 30.0524 62.1538 30.2839 61.9087C30.5154 61.6637 30.6432 61.3386 30.6406 61.0015V57.3476H34.2272C34.3832 57.3539 34.5389 57.3278 34.6843 57.2709C34.8297 57.214 34.9617 57.1277 35.0721 57.0173C35.1825 56.9069 35.2688 56.7748 35.3257 56.6294C35.3825 56.4839 35.4086 56.3283 35.4023 56.1723V51.3365C35.4084 51.176 35.3823 51.016 35.3256 50.8658C35.2689 50.7155 35.1827 50.5782 35.0721 50.4618C34.9632 50.3475 34.8321 50.2566 34.6869 50.1947C34.5416 50.1328 34.3853 50.1011 34.2274 50.1016ZM32.918 54.8633H29.3984C29.0623 54.8785 28.7451 55.0234 28.5135 55.2675C28.2819 55.5116 28.1539 55.8359 28.1563 56.1723V59.832H25.8789V56.1723C25.8647 55.8285 25.7213 55.5027 25.4773 55.26C25.2333 55.0173 24.9067 54.8756 24.5628 54.8633H20.9102V52.5859H24.5624C24.9004 52.587 25.2258 52.4577 25.471 52.225C25.7162 51.9923 25.8623 51.6741 25.8789 51.3365V47.8242H28.1563V51.3365C28.1559 51.6667 28.2865 51.9836 28.5193 52.2178C28.7521 52.452 29.0682 52.5843 29.3984 52.5859H32.918V54.8633Z" fill="url(#paint7_linear)"/>
<path d="M26.9801 38.8481C24.0319 38.8481 21.15 39.7224 18.6986 41.3603C16.2473 42.9982 14.3367 45.3263 13.2085 48.05C12.0803 50.7738 11.7851 53.7709 12.3603 56.6625C12.9354 59.554 14.3551 62.21 16.4398 64.2947C18.5245 66.3794 21.1805 67.7991 24.072 68.3742C26.9636 68.9494 29.9607 68.6542 32.6845 67.526C35.4082 66.3978 37.7363 64.4872 39.3742 62.0359C41.0121 59.5845 41.8864 56.7026 41.8864 53.7544C41.8819 49.8024 40.31 46.0135 37.5155 43.219C34.721 40.4245 30.9321 38.8526 26.9801 38.8481ZM26.9801 66.1763C24.5233 66.1763 22.1217 65.4477 20.0789 64.0828C18.0361 62.7179 16.444 60.7778 15.5038 58.508C14.5636 56.2382 14.3176 53.7406 14.7969 51.331C15.2762 48.9214 16.4593 46.708 18.1965 44.9708C19.9337 43.2336 22.1471 42.0505 24.5567 41.5712C26.9663 41.0919 29.464 41.3379 31.7338 42.2781C34.0036 43.2183 35.9436 44.8104 37.3085 46.8532C38.6735 48.8959 39.402 51.2976 39.402 53.7544C39.3983 57.0477 38.0883 60.2051 35.7596 62.5339C33.4308 64.8626 30.2735 66.1725 26.9801 66.1763Z" fill="url(#paint8_linear)"/>
<path d="M25.6719 37.6797H26.707C27.0365 37.6797 27.3524 37.5488 27.5854 37.3159C27.8183 37.0829 27.9492 36.7669 27.9492 36.4375C27.9492 36.1081 27.8183 35.7921 27.5854 35.5591C27.3524 35.3262 27.0365 35.1953 26.707 35.1953H25.6719C25.3424 35.1953 25.0265 35.3262 24.7935 35.5591C24.5606 35.7921 24.4297 36.1081 24.4297 36.4375C24.4297 36.7669 24.5606 37.0829 24.7935 37.3159C25.0265 37.5488 25.3424 37.6797 25.6719 37.6797Z" fill="url(#paint9_linear)"/>
<path d="M45.7539 36.4375C45.7539 36.1081 45.623 35.7921 45.3901 35.5591C45.1571 35.3262 44.8412 35.1953 44.5117 35.1953H30.6406C30.3112 35.1953 29.9952 35.3262 29.7623 35.5591C29.5293 35.7921 29.3984 36.1081 29.3984 36.4375C29.3984 36.7669 29.5293 37.0829 29.7623 37.3159C29.9952 37.5488 30.3112 37.6797 30.6406 37.6797H44.5117C44.8412 37.6797 45.1571 37.5488 45.3901 37.3159C45.623 37.0829 45.7539 36.7669 45.7539 36.4375Z" fill="url(#paint10_linear)"/>
<defs>
<linearGradient id="paint0_linear" x1="79.1698" y1="98.7152" x2="79.1698" y2="11.6004" gradientUnits="userSpaceOnUse">
<stop offset="0.322" stop-color="#A163F5"/>
<stop offset="0.466" stop-color="#B074EE"/>
<stop offset="0.752" stop-color="#D8A1DD"/>
<stop offset="0.898" stop-color="#EFBAD3"/>
</linearGradient>
<linearGradient id="paint1_linear" x1="26077.7" y1="47437.4" x2="26077.7" y2="5577.43" gradientUnits="userSpaceOnUse">
<stop offset="0.322" stop-color="#A163F5"/>
<stop offset="0.466" stop-color="#B074EE"/>
<stop offset="0.752" stop-color="#D8A1DD"/>
<stop offset="0.898" stop-color="#EFBAD3"/>
</linearGradient>
<linearGradient id="paint2_linear" x1="4902.81" y1="3986.49" x2="4902.81" y2="501.902" gradientUnits="userSpaceOnUse">
<stop offset="0.322" stop-color="#A163F5"/>
<stop offset="0.466" stop-color="#B074EE"/>
<stop offset="0.752" stop-color="#D8A1DD"/>
<stop offset="0.898" stop-color="#EFBAD3"/>
</linearGradient>
<linearGradient id="paint3_linear" x1="4409.77" y1="4818.87" x2="4409.77" y2="609.305" gradientUnits="userSpaceOnUse">
<stop offset="0.322" stop-color="#A163F5"/>
<stop offset="0.466" stop-color="#B074EE"/>
<stop offset="0.752" stop-color="#D8A1DD"/>
<stop offset="0.898" stop-color="#EFBAD3"/>
</linearGradient>
<linearGradient id="paint4_linear" x1="3389.84" y1="4818.87" x2="3389.84" y2="609.306" gradientUnits="userSpaceOnUse">
<stop offset="0.322" stop-color="#A163F5"/>
<stop offset="0.466" stop-color="#B074EE"/>
<stop offset="0.752" stop-color="#D8A1DD"/>
<stop offset="0.898" stop-color="#EFBAD3"/>
</linearGradient>
<linearGradient id="paint5_linear" x1="79.1698" y1="98.7152" x2="79.1698" y2="11.6003" gradientUnits="userSpaceOnUse">
<stop offset="0.322" stop-color="#A163F5"/>
<stop offset="0.466" stop-color="#B074EE"/>
<stop offset="0.752" stop-color="#D8A1DD"/>
<stop offset="0.898" stop-color="#EFBAD3"/>
</linearGradient>
<linearGradient id="paint6_linear" x1="1795.38" y1="2194.22" x2="1795.38" y2="303.305" gradientUnits="userSpaceOnUse">
<stop offset="0.322" stop-color="#A163F5"/>
<stop offset="0.466" stop-color="#B074EE"/>
<stop offset="0.752" stop-color="#D8A1DD"/>
<stop offset="0.898" stop-color="#EFBAD3"/>
</linearGradient>
<linearGradient id="paint7_linear" x1="2225.5" y1="8140.77" x2="2225.5" y2="996.661" gradientUnits="userSpaceOnUse">
<stop offset="0.322" stop-color="#A163F5"/>
<stop offset="0.466" stop-color="#B074EE"/>
<stop offset="0.752" stop-color="#D8A1DD"/>
<stop offset="0.898" stop-color="#EFBAD3"/>
</linearGradient>
<linearGradient id="paint8_linear" x1="3897.21" y1="14253.8" x2="3897.21" y2="1709.3" gradientUnits="userSpaceOnUse">
<stop offset="0.322" stop-color="#A163F5"/>
<stop offset="0.466" stop-color="#B074EE"/>
<stop offset="0.752" stop-color="#D8A1DD"/>
<stop offset="0.898" stop-color="#EFBAD3"/>
</linearGradient>
<linearGradient id="paint9_linear" x1="469.65" y1="1219.78" x2="469.65" y2="174.4" gradientUnits="userSpaceOnUse">
<stop offset="0.322" stop-color="#A163F5"/>
<stop offset="0.466" stop-color="#B074EE"/>
<stop offset="0.752" stop-color="#D8A1DD"/>
<stop offset="0.898" stop-color="#EFBAD3"/>
</linearGradient>
<linearGradient id="paint10_linear" x1="2997.92" y1="1219.78" x2="2997.92" y2="174.4" gradientUnits="userSpaceOnUse">
<stop offset="0.322" stop-color="#A163F5"/>
<stop offset="0.466" stop-color="#B074EE"/>
<stop offset="0.752" stop-color="#D8A1DD"/>
<stop offset="0.898" stop-color="#EFBAD3"/>
</linearGradient>
</defs>
</svg>
